<?xml version="1.0" encoding="UTF-8"?>
<svg version="1.1" xmlns="http://www.w3.org/2000/svg" width="479" height="520">
<path d="M0 0 C14.52 0 29.04 0 44 0 C44 6.27 44 12.54 44 19 C50.93 19 57.86 19 65 19 C65 25.93 65 32.86 65 40 C78.2 40 91.4 40 105 40 C105 26.8 105 13.6 105 0 C125.79 0 146.58 0 168 0 C168 6.6 168 13.2 168 20 C174.93 20 181.86 20 189 20 C189 40.46 189 60.92 189 82 C196.26 82 203.52 82 211 82 C211 110.05 211 138.1 211 167 C203.74 167 196.48 167 189 167 C189 173.6 189 180.2 189 187 C182.4 187 175.8 187 169 187 C169 193.93 169 200.86 169 208 C155.14 208 141.28 208 127 208 C127 214.6 127 221.2 127 228 C140.86 228 154.72 228 169 228 C169 234.93 169 241.86 169 249 C175.6 249 182.2 249 189 249 C189 262.53 189 276.06 189 290 C196.26 290 203.52 290 211 290 C211 310.79 211 331.58 211 353 C217.6 353 224.2 353 231 353 C231 366.86 231 380.72 231 395 C244.2 395 257.4 395 271 395 C271 381.14 271 367.28 271 353 C277.93 353 284.86 353 292 353 C292 339.47 292 325.94 292 312 C285.07 312 278.14 312 271 312 C271 298.14 271 284.28 271 270 C264.07 270 257.14 270 250 270 C250 256.47 250 242.94 250 229 C243.4 229 236.8 229 230 229 C230 200.95 230 172.9 230 144 C236.6 144 243.2 144 250 144 C250 137.07 250 130.14 250 123 C264.19 123 278.38 123 293 123 C293 129.93 293 136.86 293 144 C299.93 144 306.86 144 314 144 C314 157.86 314 171.72 314 186 C320.93 186 327.86 186 335 186 C335 255.3 335 324.6 335 396 C328.07 396 321.14 396 314 396 C314 402.6 314 409.2 314 416 C307.07 416 300.14 416 293 416 C293.03958259 422.5370285 293.03958259 422.5370285 293.09008789 429.07397461 C293.09383423 430.28839233 293.09383423 430.28839233 293.09765625 431.52734375 C293.10551147 432.77632446 293.10551147 432.77632446 293.11352539 434.05053711 C293 436 293 436 292 437 C285.4 437 278.8 437 272 437 C272 457.79 272 478.58 272 500 C265.07 500 258.14 500 251 500 C251 506.6 251 513.2 251 520 C161.57 520 72.14 520 -20 520 C-20 506.14 -20 492.28 -20 478 C-6.14 478 7.72 478 22 478 C22 402.1 22 326.2 22 248 C28.6 248 35.2 248 42 248 C42 234.8 42 221.6 42 208 C35.4 208 28.8 208 22 208 C22 201.07 22 194.14 22 187 C14.74 187 7.48 187 0 187 C0 180.4 0 173.8 0 167 C-6.6 167 -13.2 167 -20 167 C-20 138.95 -20 110.9 -20 82 C-13.4 82 -6.8 82 0 82 C0 54.94 0 27.88 0 0 Z " fill="#161816" transform="translate(88,0)"/>
<path d="M0 0 C27.39 0 54.78 0 83 0 C83 6.93 83 13.86 83 21 C89.6 21 96.2 21 103 21 C103 34.53 103 48.06 103 62 C110.26 62 117.52 62 125 62 C125 82.79 125 103.58 125 125 C131.6 125 138.2 125 145 125 C145 138.53 145 152.06 145 166 C131.47 166 117.94 166 104 166 C104 172.93 104 179.86 104 187 C97.07 187 90.14 187 83 187 C83 200.53 83 214.06 83 228 C76.07 228 69.14 228 62 228 C62 234.93 62 241.86 62 249 C55.4 249 48.8 249 42 249 C42 255.93 42 262.86 42 270 C82.59 270 123.18 270 165 270 C165 276.93 165 283.86 165 291 C75.9 291 -13.2 291 -105 291 C-105 277.14 -105 263.28 -105 249 C-91.14 249 -77.28 249 -63 249 C-63 173.43 -63 97.86 -63 20 C-49.14 20 -35.28 20 -21 20 C-21 26.93 -21 33.86 -21 41 C-14.07 41 -7.14 41 0 41 C0 27.47 0 13.94 0 0 Z " fill="#161817" transform="translate(173,229)"/>
<path d="M0 0 C13.86 0 27.72 0 42 0 C42 6.6 42 13.2 42 20 C48.93 20 55.86 20 63 20 C63 33.86 63 47.72 63 62 C69.93 62 76.86 62 84 62 C84 131.3 84 200.6 84 272 C77.07 272 70.14 272 63 272 C63 278.6 63 285.2 63 292 C56.07 292 49.14 292 42 292 C42 298.6 42 305.2 42 312 C34.74 312 27.48 312 20 312 C20 332.46 20 352.92 20 374 C13.4 374 6.8 374 0 374 C0 346.94 0 319.88 0 292 C-6.93 292 -13.86 292 -21 292 C-21 285.4 -21 278.8 -21 272 C-7.14 272 6.72 272 21 272 C21 258.14 21 244.28 21 230 C27.93 230 34.86 230 42 230 C42 215.81 42 201.62 42 187 C35.07 187 28.14 187 21 187 C21 173.14 21 159.28 21 145 C14.07 145 7.14 145 0 145 C0 131.47 0 117.94 0 104 C-6.6 104 -13.2 104 -20 104 C-20 76.61 -20 49.22 -20 21 C-13.4 21 -6.8 21 0 21 C0 14.07 0 7.14 0 0 Z " fill="#191B1A" transform="translate(339,124)"/>
<path d="M0 0 C6.93 0 13.86 0 21 0 C21 20.46 21 40.92 21 62 C28.26 62 35.52 62 43 62 C43 90.05 43 118.1 43 147 C35.74 147 28.48 147 21 147 C21 153.6 21 160.2 21 167 C14.4 167 7.8 167 1 167 C1 173.93 1 180.86 1 188 C-12.86 188 -26.72 188 -41 188 C-41 194.6 -41 201.2 -41 208 C-27.14 208 -13.28 208 1 208 C1 214.93 1 221.86 1 229 C7.6 229 14.2 229 21 229 C21 242.53 21 256.06 21 270 C28.26 270 35.52 270 43 270 C43 290.79 43 311.58 43 333 C49.6 333 56.2 333 63 333 C63 346.86 63 360.72 63 375 C76.2 375 89.4 375 103 375 C103 361.14 103 347.28 103 333 C109.93 333 116.86 333 124 333 C124 319.47 124 305.94 124 292 C117.07 292 110.14 292 103 292 C103 278.14 103 264.28 103 250 C96.07 250 89.14 250 82 250 C82 236.47 82 222.94 82 209 C75.4 209 68.8 209 62 209 C62 180.95 62 152.9 62 124 C68.6 124 75.2 124 82 124 C82 117.07 82 110.14 82 103 C96.19 103 110.38 103 125 103 C125 103.33 125 103.66 125 104 C111.14 104 97.28 104 83 104 C83 110.93 83 117.86 83 125 C76.4 125 69.8 125 63 125 C63 152.39 63 179.78 63 208 C69.6 208 76.2 208 83 208 C83 221.53 83 235.06 83 249 C89.93 249 96.86 249 104 249 C104 262.86 104 276.72 104 291 C110.93 291 117.86 291 125 291 C125 305.19 125 319.38 125 334 C118.07 334 111.14 334 104 334 C104 347.86 104 361.72 104 376 C90.14 376 76.28 376 62 376 C62 382.6 62 389.2 62 396 C68.93 396 75.86 396 83 396 C83 423.06 83 450.12 83 478 C89.6 478 96.2 478 103 478 C103 457.54 103 437.08 103 416 C109.93 416 116.86 416 124 416 C124 416.33 124 416.66 124 417 C117.4 417 110.8 417 104 417 C104 437.79 104 458.58 104 480 C97.07 480 90.14 480 83 480 C83 486.6 83 493.2 83 500 C82.67 500 82.34 500 82 500 C82 493.07 82 486.14 82 479 C41.41 479 0.82 479 -41 479 C-41 472.07 -41 465.14 -41 458 C-34.4 458 -27.8 458 -21 458 C-21 451.07 -21 444.14 -21 437 C-14.07 437 -7.14 437 0 437 C0 423.47 0 409.94 0 396 C6.93 396 13.86 396 21 396 C21 389.07 21 382.14 21 375 C34.53 375 48.06 375 62 375 C62 361.47 62 347.94 62 334 C55.4 334 48.8 334 42 334 C42 313.21 42 292.42 42 271 C34.74 271 27.48 271 20 271 C20 257.47 20 243.94 20 230 C13.4 230 6.8 230 0 230 C0 223.07 0 216.14 0 209 C-27.39 209 -54.78 209 -83 209 C-83 222.53 -83 236.06 -83 250 C-89.93 250 -96.86 250 -104 250 C-104 243.07 -104 236.14 -104 229 C-117.86 229 -131.72 229 -146 229 C-146 228.67 -146 228.34 -146 228 C-139.4 228 -132.8 228 -126 228 C-126 214.8 -126 201.6 -126 188 C-132.6 188 -139.2 188 -146 188 C-146 181.07 -146 174.14 -146 167 C-145.67 167 -145.34 167 -145 167 C-145 173.6 -145 180.2 -145 187 C-97.48 187 -49.96 187 -1 187 C-1 180.07 -1 173.14 -1 166 C5.93 166 12.86 166 20 166 C20 159.4 20 152.8 20 146 C26.93 146 33.86 146 41 146 C41 118.61 41 91.22 41 63 C34.07 63 27.14 63 20 63 C20 42.54 20 22.08 20 1 C13.4 1 6.8 1 0 1 C0 0.67 0 0.34 0 0 Z " fill="#31312F" transform="translate(256,20)"/>
<path d="M0 0 C13.86 0 27.72 0 42 0 C42 6.6 42 13.2 42 20 C48.93 20 55.86 20 63 20 C63 34.19 63 48.38 63 63 C69.6 63 76.2 63 83 63 C83 131.64 83 200.28 83 271 C76.07 271 69.14 271 62 271 C62 277.6 62 284.2 62 291 C55.4 291 48.8 291 42 291 C42 284.4 42 277.8 42 271 C43.44375 270.835 44.8875 270.67 46.375 270.5 C47.18710937 270.4071875 47.99921875 270.314375 48.8359375 270.21875 C53.21411329 269.9160613 57.61137337 270 62 270 C61.67 208.62 61.34 147.24 61 84 C54.73 83.67 48.46 83.34 42 83 C41.67 62.87 41.34 42.74 41 22 C37.11538953 20.70512984 33.44116044 20.8767396 29.39453125 20.90234375 C28.55532639 20.9037587 27.71612152 20.90517365 26.85148621 20.90663147 C24.17178784 20.91222785 21.4921731 20.92477965 18.8125 20.9375 C16.99544392 20.94251547 15.17838652 20.94707829 13.36132812 20.95117188 C8.90749396 20.96134509 4.45384057 20.9809212 0 21 C0 14.07 0 7.14 0 0 Z " fill="#090909" transform="translate(339,124)"/>
<path d="M0 0 C13.86 0 27.72 0 42 0 C42 20.79 42 41.58 42 63 C82.92 63 123.84 63 166 63 C166 69.93 166 76.86 166 84 C144.50390924 83.89269751 123.00785308 83.78017136 101.51182652 83.66066074 C91.53157808 83.60530649 81.55132607 83.55182094 71.57104492 83.50268555 C62.87551613 83.45987062 54.1800139 83.41359954 45.4845261 83.36312145 C40.87737828 83.33649875 36.2702358 83.31164522 31.66305733 83.29092598 C27.33178826 83.27139305 23.00056984 83.24725952 18.66934586 83.21950912 C17.07495604 83.2101209 15.48055509 83.20245204 13.88614845 83.19658089 C11.71880703 83.18834964 9.55158955 83.17408174 7.3842926 83.15821838 C6.16844766 83.15176583 4.95260271 83.14531328 3.69991398 83.1386652 C1 83 1 83 0 82 C-0.09506052 79.44410112 -0.12556761 76.91532028 -0.11352539 74.35913086 C-0.11367142 73.55919205 -0.11381744 72.75925323 -0.1139679 71.93507385 C-0.11326855 69.27830335 -0.10547518 66.62160207 -0.09765625 63.96484375 C-0.09579215 62.12781309 -0.09436821 60.29078194 -0.09336853 58.45375061 C-0.08954275 53.60890338 -0.07971196 48.76408592 -0.06866455 43.91925049 C-0.05665742 38.11148443 -0.05204848 32.30370844 -0.04621124 26.49593353 C-0.03650023 17.66393495 -0.0173441 8.83200176 0 0 Z " fill="#060606" transform="translate(172,436)"/>
<path d="M0 0 C13.53 0 27.06 0 41 0 C41 27.06 41 54.12 41 82 C-0.58 82.495 -0.58 82.495 -43 83 C-43 69.14 -43 55.28 -43 41 C-28.81 41 -14.62 41 0 41 C0 27.47 0 13.94 0 0 Z " fill="#070707" transform="translate(111,437)"/>
<path d="M0 0 C6.93 0 13.86 0 21 0 C21 20.46 21 40.92 21 62 C28.26 62 35.52 62 43 62 C43 90.05 43 118.1 43 147 C35.74 147 28.48 147 21 147 C21 153.6 21 160.2 21 167 C14.4 167 7.8 167 1 167 C1 173.93 1 180.86 1 188 C-12.86 188 -26.72 188 -41 188 C-41 194.6 -41 201.2 -41 208 C-27.14 208 -13.28 208 1 208 C1 214.93 1 221.86 1 229 C7.6 229 14.2 229 21 229 C21 242.53 21 256.06 21 270 C28.26 270 35.52 270 43 270 C43 290.79 43 311.58 43 333 C49.6 333 56.2 333 63 333 C63 346.86 63 360.72 63 375 C62.67 375 62.34 375 62 375 C62 361.47 62 347.94 62 334 C55.4 334 48.8 334 42 334 C42 313.21 42 292.42 42 271 C34.74 271 27.48 271 20 271 C20 257.47 20 243.94 20 230 C13.4 230 6.8 230 0 230 C0 223.07 0 216.14 0 209 C-27.39 209 -54.78 209 -83 209 C-83 222.53 -83 236.06 -83 250 C-89.93 250 -96.86 250 -104 250 C-104 243.07 -104 236.14 -104 229 C-117.86 229 -131.72 229 -146 229 C-146 228.67 -146 228.34 -146 228 C-139.4 228 -132.8 228 -126 228 C-126 214.8 -126 201.6 -126 188 C-132.6 188 -139.2 188 -146 188 C-146 181.07 -146 174.14 -146 167 C-145.67 167 -145.34 167 -145 167 C-145 173.6 -145 180.2 -145 187 C-97.48 187 -49.96 187 -1 187 C-1 180.07 -1 173.14 -1 166 C5.93 166 12.86 166 20 166 C20 159.4 20 152.8 20 146 C26.93 146 33.86 146 41 146 C41 118.61 41 91.22 41 63 C34.07 63 27.14 63 20 63 C20 42.54 20 22.08 20 1 C13.4 1 6.8 1 0 1 C0 0.67 0 0.34 0 0 Z " fill="#834638" transform="translate(256,20)"/>
<path d="M0 0 C13.86 0 27.72 0 42 0 C42 6.93 42 13.86 42 21 C35.07 21 28.14 21 21 21 C21 41.46 21 61.92 21 83 C14.4 83 7.8 83 1 83 C1 96.86 1 110.72 1 125 C7.6 125 14.2 125 21 125 C21 145.46 21 165.92 21 187 C14.4 187 7.8 187 1 187 C1 200.86 1 214.72 1 229 C0.67 229 0.34 229 0 229 C0 153.43 0 77.86 0 0 Z " fill="#2F2F2D" transform="translate(110,249)"/>
<path d="M0 0 C13.53 0 27.06 0 41 0 C41 6.6 41 13.2 41 20 C34.07 20 27.14 20 20 20 C20 40.46 20 60.92 20 82 C13.4 82 6.8 82 0 82 C0 54.94 0 27.88 0 0 Z " fill="#070707" transform="translate(339,416)"/>
<path d="M0 0 C27.39 0 54.78 0 83 0 C83 0.33 83 0.66 83 1 C56.27 1 29.54 1 2 1 C2 7.27 2 13.54 2 20 C29.06 20 56.12 20 84 20 C84 13.4 84 6.8 84 0 C84.33 0 84.66 0 85 0 C85 6.6 85 13.2 85 20 C98.86 20 112.72 20 127 20 C127 26.93 127 33.86 127 41 C133.6 41 140.2 41 147 41 C147 54.53 147 68.06 147 82 C154.26 82 161.52 82 169 82 C169 102.79 169 123.58 169 145 C175.6 145 182.2 145 189 145 C189 158.86 189 172.72 189 187 C188.67 187 188.34 187 188 187 C188 173.47 188 159.94 188 146 C181.4 146 174.8 146 168 146 C168 125.21 168 104.42 168 83 C160.74 83 153.48 83 146 83 C146 69.47 146 55.94 146 42 C139.4 42 132.8 42 126 42 C126 35.07 126 28.14 126 21 C98.61 21 71.22 21 43 21 C43 34.53 43 48.06 43 62 C36.07 62 29.14 62 22 62 C22 55.07 22 48.14 22 41 C8.14 41 -5.72 41 -20 41 C-20 40.67 -20 40.34 -20 40 C-13.4 40 -6.8 40 0 40 C0 26.8 0 13.6 0 0 Z " fill="#BA9D56" transform="translate(130,208)"/>
<path d="M0 0 C6.93 0 13.86 0 21 0 C21 27.39 21 54.78 21 83 C14.73 83 8.46 83 2 83 C0.01436605 81.01436605 0.81518656 77.07856945 0.79467773 74.35913086 C0.78477814 73.55919205 0.77487854 72.75925323 0.76467896 71.93507385 C0.73297082 69.27836108 0.70826992 66.6216304 0.68359375 63.96484375 C0.66303225 62.12780785 0.642036 60.29077676 0.62062073 58.45375061 C0.56531696 53.60895682 0.51594445 48.76411975 0.46777344 43.91925049 C0.41761889 38.97933075 0.36190134 34.03947417 0.30664062 29.09960938 C0.19895752 19.39979144 0.09804905 9.69992011 0 0 Z " fill="#070707" transform="translate(276,83)"/>
<path d="M0 0 C0.33 0 0.66 0 1 0 C1 6.6 1 13.2 1 20 C7.93 20 14.86 20 22 20 C22 40.79 22 61.58 22 83 C8.47 83 -5.06 83 -19 83 C-19 110.39 -19 137.78 -19 166 C-12.4 166 -5.8 166 1 166 C1 172.93 1 179.86 1 187 C0.67 187 0.34 187 0 187 C0 180.4 0 173.8 0 167 C-6.6 167 -13.2 167 -20 167 C-20 138.95 -20 110.9 -20 82 C-13.4 82 -6.8 82 0 82 C0 54.94 0 27.88 0 0 Z " fill="#2C2B29" transform="translate(88,0)"/>
<path d="M0 0 C0.33 0 0.66 0 1 0 C1 6.27 1 12.54 1 19 C7.93 19 14.86 19 22 19 C22 25.93 22 32.86 22 40 C35.2 40 48.4 40 62 40 C62 26.8 62 13.6 62 0 C62.33 0 62.66 0 63 0 C63 6.6 63 13.2 63 20 C69.6 20 76.2 20 83 20 C83 27.26 83 34.52 83 42 C69.14 42 55.28 42 41 42 C41 48.6 41 55.2 41 62 C27.47 62 13.94 62 0 62 C0 55.07 0 48.14 0 41 C6.6 41 13.2 41 20 41 C20 34.4 20 27.8 20 21 C13.4 21 6.8 21 0 21 C0 14.07 0 7.14 0 0 Z " fill="#32302E" transform="translate(131,0)"/>
<path d="M0 0 C6.6 0 13.2 0 20 0 C20 20.46 20 40.92 20 62 C13.4 62 6.8 62 0 62 C0 41.54 0 21.08 0 0 Z " fill="#2A2A28" transform="translate(111,374)"/>
<path d="M0 0 C6.27 0 12.54 0 19 0 C19 20.46 19 40.92 19 62 C12.73 62 6.46 62 0 62 C-1.74087626 60.25912374 -1.12758322 57.86965834 -1.12939453 55.50219727 C-1.13254669 54.32750381 -1.13569885 53.15281036 -1.13894653 51.94252014 C-1.1369223 50.66340256 -1.13489807 49.38428497 -1.1328125 48.06640625 C-1.13376923 46.76299789 -1.13472595 45.45958954 -1.13571167 44.11668396 C-1.13718851 41.35341207 -1.1350349 38.59017244 -1.13037109 35.8269043 C-1.12467938 32.28137163 -1.12794934 28.73591474 -1.13394356 25.19038486 C-1.13842292 21.81571922 -1.13528775 18.44107405 -1.1328125 15.06640625 C-1.13483673 13.7893129 -1.13686096 12.51221954 -1.13894653 11.19642639 C-1.13579437 10.01858078 -1.13264221 8.84073517 -1.12939453 7.62719727 C-1.12859894 6.58652603 -1.12780334 5.5458548 -1.12698364 4.47364807 C-1 2 -1 2 0 0 Z " fill="#070707" transform="translate(278,291)"/>
<path d="M0 0 C6.6 0 13.2 0 20 0 C20 20.13 20 40.26 20 61 C13.4 61 6.8 61 0 61 C-0.15302506 53.19433371 -0.30178894 45.38861465 -0.4429636 37.58272648 C-0.5086825 33.95849515 -0.57629966 30.3343196 -0.64819336 26.71020508 C-0.71745158 23.21547391 -0.78180408 19.72068427 -0.84269524 16.22579765 C-0.87863704 14.23754858 -0.91971453 12.24939453 -0.96083069 10.26124573 C-0.98092697 9.06007614 -1.00102325 7.85890656 -1.02172852 6.62133789 C-1.04171402 5.55766495 -1.06169952 4.493992 -1.08229065 3.39808655 C-1 1 -1 1 0 0 Z " fill="#070707" transform="translate(256,21)"/>
<path d="M0 0 C6.93 0 13.86 0 21 0 C21 13.86 21 27.72 21 42 C14.07 42 7.14 42 0 42 C0 28.14 0 14.28 0 0 Z " fill="#217A04" transform="translate(172,103)"/>
<path d="M0 0 C6.93 0 13.86 0 21 0 C21 13.86 21 27.72 21 42 C14.07 42 7.14 42 0 42 C0 28.14 0 14.28 0 0 Z " fill="#217B05" transform="translate(89,103)"/>
<path d="M0 0 C6.6 0 13.2 0 20 0 C20 13.53 20 27.06 20 41 C13.73 41 7.46 41 1 41 C0 40 0 40 -0.11352539 36.21459961 C-0.11336622 34.52717271 -0.10766917 32.83974095 -0.09765625 31.15234375 C-0.0962413 30.2659169 -0.09482635 29.37949005 -0.09336853 28.46620178 C-0.08775215 25.62326746 -0.07519691 22.78041069 -0.0625 19.9375 C-0.05748711 18.01497509 -0.05292384 16.09244896 -0.04882812 14.16992188 C-0.03862648 9.44656036 -0.01905437 4.72336742 0 0 Z " fill="#080808" transform="translate(298,354)"/>
<path d="M0 0 C6.6 0 13.2 0 20 0 C20 13.53 20 27.06 20 41 C13.4 41 6.8 41 0 41 C0 27.47 0 13.94 0 0 Z " fill="#070707" transform="translate(256,250)"/>
<path d="M0 0 C0.33 0 0.66 0 1 0 C1 6.6 1 13.2 1 20 C7.93 20 14.86 20 22 20 C22 26.93 22 33.86 22 41 C15.4 41 8.8 41 2 41 C2 54.86 2 68.72 2 83 C-4.93 83 -11.86 83 -19 83 C-19 110.39 -19 137.78 -19 166 C-12.4 166 -5.8 166 1 166 C1 172.93 1 179.86 1 187 C0.67 187 0.34 187 0 187 C0 180.4 0 173.8 0 167 C-6.6 167 -13.2 167 -20 167 C-20 138.95 -20 110.9 -20 82 C-13.4 82 -6.8 82 0 82 C0 54.94 0 27.88 0 0 Z " fill="#C1A8A8" transform="translate(88,0)"/>
<path d="M0 0 C0.33 0 0.66 0 1 0 C1 6.27 1 12.54 1 19 C7.93 19 14.86 19 22 19 C22 25.93 22 32.86 22 40 C35.2 40 48.4 40 62 40 C62 26.8 62 13.6 62 0 C62.33 0 62.66 0 63 0 C63 6.6 63 13.2 63 20 C69.6 20 76.2 20 83 20 C83 26.93 83 33.86 83 41 C62.54 41 42.08 41 21 41 C21 34.07 21 27.14 21 20 C14.07 20 7.14 20 0 20 C0 13.4 0 6.8 0 0 Z " fill="#DD8A89" transform="translate(131,0)"/>
<path d="M0 0 C13.86 0 27.72 0 42 0 C42 6.93 42 13.86 42 21 C35.07 21 28.14 21 21 21 C21 14.4 21 7.8 21 1 C14.07 1 7.14 1 0 1 C0 0.67 0 0.34 0 0 Z " fill="#635526" transform="translate(110,249)"/>
<path d="M0 0 C6.93 0 13.86 0 21 0 C21 6.6 21 13.2 21 20 C14.07 20 7.14 20 0 20 C0 13.4 0 6.8 0 0 Z " fill="#080808" transform="translate(318,396)"/>
<path d="M0 0 C6.93 0 13.86 0 21 0 C21 6.6 21 13.2 21 20 C14.07 20 7.14 20 0 20 C0 13.4 0 6.8 0 0 Z " fill="#32302E" transform="translate(89,0)"/>
<path d="M0 0 C6.93 0 13.86 0 21 0 C21.07145863 6.93148697 20.98380114 13.113392 20 20 C13.4 20 6.8 20 0 20 C0 13.4 0 6.8 0 0 Z " fill="#343432" transform="translate(69,83)"/>
<path d="M0 0 C6.6 0 13.2 0 20 0 C20 6.6 20 13.2 20 20 C13.4 20 6.8 20 0 20 C0 13.4 0 6.8 0 0 Z " fill="#090706" transform="translate(235,187)"/>
<path d="M0 0 C6.6 0 13.2 0 20 0 C20 6.6 20 13.2 20 20 C13.4 20 6.8 20 0 20 C0 13.4 0 6.8 0 0 Z " fill="#070707" transform="translate(256,166)"/>
<path d="M0 0 C6.6 0 13.2 0 20 0 C20 6.6 20 13.2 20 20 C13.4 20 6.8 20 0 20 C0 13.4 0 6.8 0 0 Z " fill="#070707" transform="translate(235,0)"/>
<path d="M0 0 C6.6 0 13.2 0 20 0 C20 6.27 20 12.54 20 19 C13.4 19 6.8 19 0 19 C0 12.73 0 6.46 0 0 Z " fill="#080707" transform="translate(235,230)"/>
<path d="M0 0 C0 5.94 0 11.88 0 18 C-3.6196875 18.061875 -3.6196875 18.061875 -7.3125 18.125 C-8.06829346 18.14320801 -8.82408691 18.16141602 -9.6027832 18.18017578 C-13.31447871 18.21099473 -14.83533664 18.10977558 -18 16 C-18.46875 13.06640625 -18.46875 13.06640625 -18.5 9.5625 C-18.5309375 8.40878906 -18.561875 7.25507813 -18.59375 6.06640625 C-18 3 -18 3 -15.89453125 1.1015625 C-10.66642923 -0.88807956 -5.53909024 -0.16785122 0 0 Z " fill="#D98382" transform="translate(109,21)"/>
<path d="M0 0 C0.33 0 0.66 0 1 0 C1 6.27 1 12.54 1 19 C7.93 19 14.86 19 22 19 C22 25.93 22 32.86 22 40 C35.2 40 48.4 40 62 40 C62 26.8 62 13.6 62 0 C62.33 0 62.66 0 63 0 C63 6.6 63 13.2 63 20 C69.6 20 76.2 20 83 20 C83 26.93 83 33.86 83 41 C62.54 41 42.08 41 21 41 C21 34.07 21 27.14 21 20 C14.07 20 7.14 20 0 20 C0 13.4 0 6.8 0 0 Z M65 22 C63.34136748 26.97589756 62.76459233 29.40665467 62.875 34.375 C62.89304688 35.43460938 62.91109375 36.49421875 62.9296875 37.5859375 C62.95289063 38.38257812 62.97609375 39.17921875 63 40 C65.22889496 40.05428973 67.45817471 40.09292338 69.6875 40.125 C70.92886719 40.14820312 72.17023438 40.17140625 73.44921875 40.1953125 C76.81237857 40.01032021 78.9985587 39.45767895 82 38 C82.05482724 36.45874525 82.09316134 34.91690094 82.125 33.375 C82.14820313 32.51648437 82.17140625 31.65796875 82.1953125 30.7734375 C82.07248652 27.38811657 82.07248652 27.38811657 80 22 C75.05 22 70.1 22 65 22 Z " fill="#C2A1A2" transform="translate(131,0)"/>
<path d="M0 0 C0.33 0 0.66 0 1 0 C1 6.93 1 13.86 1 21 C14.53 21 28.06 21 42 21 C42 34.2 42 47.4 42 61 C35.4 61 28.8 61 22 61 C22 54.4 22 47.8 22 41 C8.14 41 -5.72 41 -20 41 C-20 40.67 -20 40.34 -20 40 C-13.4 40 -6.8 40 0 40 C0 26.8 0 13.6 0 0 Z M2 23 C1.97290556 25.08326131 1.95356127 27.16662441 1.9375 29.25 C1.92589844 30.41015625 1.91429687 31.5703125 1.90234375 32.765625 C1.88993743 36.16366549 1.88993743 36.16366549 3 40 C9.27 40 15.54 40 22 40 C22.33 46.6 22.66 53.2 23 60 C28.94 60 34.88 60 41 60 C41 47.46 41 34.92 41 22 C31.904375 21.9690625 31.904375 21.9690625 22.625 21.9375 C20.71154785 21.928396 18.7980957 21.91929199 16.82666016 21.90991211 C15.31412832 21.90699216 13.8015957 21.90444379 12.2890625 21.90234375 C11.50039795 21.89722778 10.7117334 21.89211182 9.89916992 21.88684082 C5.81832669 21.78432865 5.81832669 21.78432865 2 23 Z " fill="#D0AF5C" transform="translate(130,208)"/>
<path d="M0 0 C27.39 0 54.78 0 83 0 C83 6.93 83 13.86 83 21 C82.67 21 82.34 21 82 21 C82 14.4 82 7.8 82 1 C78.00132812 1.24556641 78.00132812 1.24556641 73.921875 1.49609375 C60.3808339 2.22743188 46.83270463 2.11442198 33.27655029 2.06866455 C29.84973792 2.05824055 26.42291757 2.05382706 22.99609375 2.04882812 C16.33070923 2.03793563 9.66535895 2.02130449 3 2 C1.9193905 5.9406522 1.77755217 9.7630289 1.68359375 13.828125 C1.66281265 14.57713074 1.64203156 15.32613647 1.62062073 16.09783936 C1.55542912 18.48180288 1.49638217 20.86587312 1.4375 23.25 C1.39428584 24.86980254 1.35067063 26.48959443 1.30664062 28.109375 C1.19977904 32.07280832 1.09842667 36.0363486 1 40 C0.67 40 0.34 40 0 40 C0 26.8 0 13.6 0 0 Z " fill="#2C150E" transform="translate(173,229)"/>
<path d="M0 0 C0.33 0 0.66 0 1 0 C1.66 13.2 2.32 26.4 3 40 C8.61 40 14.22 40 20 40 C20 40.33 20 40.66 20 41 C6.8 41 -6.4 41 -20 41 C-20 40.67 -20 40.34 -20 40 C-13.4 40 -6.8 40 0 40 C0 26.8 0 13.6 0 0 Z " fill="#DAC68E" transform="translate(130,208)"/>
<path d="M0 0 C0.33 0 0.66 0 1 0 C1 13.53 1 27.06 1 41 C7.6 41 14.2 41 21 41 C21.33 41.66 21.66 42.32 22 43 C14.74 43 7.48 43 0 43 C-0.91866251 40.24401248 -1.101683 38.80372349 -1.02172852 35.98754883 C-1.00163223 35.18694534 -0.98153595 34.38634186 -0.96083069 33.56147766 C-0.92027809 32.27227669 -0.92027809 32.27227669 -0.87890625 30.95703125 C-0.85529526 30.0734343 -0.83168427 29.18983734 -0.80735779 28.27946472 C-0.73077765 25.45697742 -0.64672891 22.6347684 -0.5625 19.8125 C-0.50927366 17.89910216 -0.4565333 15.98569074 -0.40429688 14.07226562 C-0.2751701 9.38133416 -0.13934467 4.69063861 0 0 Z " fill="#0A2604" transform="translate(171,104)"/>
<path d="M0 0 C0 0.66 0 1.32 0 2 C-6.27 2 -12.54 2 -19 2 C-18.67 1.34 -18.34 0.68 -18 0 C-12.33897515 -1.76907027 -5.67234657 -1.62067045 0 0 Z " fill="#151308" transform="translate(130,205)"/>
</svg>
